<svg width="20" height="20" viewBox="0 0 20 20" fill="none" xmlns="http://www.w3.org/2000/svg">
<path opacity="0.3" d="M7.73 1.7049C8.56516 1.80487 9.3655 2.09826 10.0674 2.56176C10.7693 3.02526 11.3534 3.64608 11.7733 4.37489C12.2233 5.15489 12.4583 6.00073 12.495 6.8424C11.6725 6.9824 10.8517 7.21739 10.105 7.59239C9.66958 7.10216 9.28563 6.56853 8.95917 5.99989C7.605 3.65406 7.73 1.7049 7.73 1.7049ZM2.68083 10.2399L2.6575 10.2066C2.1071 9.42854 1.77206 8.5189 1.68631 7.56975C1.60055 6.62059 1.76713 5.66563 2.16917 4.80156C2.71917 5.19323 4.1375 6.31573 5.20583 8.16656C5.4273 8.55037 5.62301 8.94846 5.79167 9.35823C5.83889 9.47434 5.88333 9.58823 5.925 9.69989C6.50167 11.2832 6.43667 12.4316 6.435 12.4616C5.12665 12.3027 3.92067 11.6736 3.04167 10.6916C2.91369 10.5468 2.79299 10.3958 2.68 10.2391" fill="black"/>
<path opacity="0.5" d="M13.35 6.73016C11.6675 6.89183 9.88001 7.39683 8.63834 8.6385C7.39668 9.88016 6.89168 11.6668 6.73001 13.3493L11.6492 18.2693C13.3317 18.1068 15.1192 17.6027 16.3608 16.361C17.6025 15.1193 18.1067 13.3318 18.2692 11.6493L13.35 6.73016Z" fill="black"/>
<path fill-rule="evenodd" clip-rule="evenodd" d="M4.37416 2.39167C5.38829 1.8038 6.56639 1.56245 7.72999 1.70417C7.72999 1.70417 7.60499 3.65417 8.95916 5.99917C9.32583 6.63584 9.72249 7.1625 10.105 7.59334C9.56353 7.86126 9.06839 8.21405 8.63833 8.63834C7.60499 9.67167 7.08249 11.0817 6.84249 12.495C6.70603 12.4887 6.56984 12.4776 6.43416 12.4617C6.43666 12.4367 6.50249 11.2867 5.92416 9.7C5.78806 9.32351 5.62743 8.95633 5.44333 8.60084C5.36776 8.4539 5.28857 8.30885 5.20583 8.16584C4.43809 6.84583 3.40392 5.70012 2.16916 4.80167C2.63727 3.78966 3.40764 2.94767 4.37416 2.39167Z" fill="black"/>
<path d="M16.04 6.71745C15.1446 6.64557 14.2447 6.65003 13.35 6.73078L18.2692 11.6499C18.3633 10.6749 18.3417 9.73661 18.2825 8.95995C18.2426 8.37844 17.9935 7.83104 17.5813 7.41896C17.169 7.00688 16.6215 6.75798 16.04 6.71828M8.96001 18.2824C9.73667 18.3416 10.6758 18.3633 11.65 18.2691L6.73084 13.3499C6.6501 14.2446 6.64564 15.1445 6.71751 16.0399C6.75743 16.6215 7.00653 17.1688 7.41876 17.5809C7.831 17.993 8.37848 18.2427 8.96001 18.2824Z" fill="black"/>
<path fill-rule="evenodd" clip-rule="evenodd" d="M12.4667 10.2602C12.5487 10.1783 12.6599 10.1322 12.7758 10.1322C12.8918 10.1322 13.003 10.1783 13.085 10.2602L13.6033 10.7785L14.1208 10.2602C14.1614 10.2195 14.2096 10.1873 14.2627 10.1653C14.3158 10.1432 14.3727 10.1319 14.4301 10.1318C14.4876 10.1318 14.5445 10.1431 14.5976 10.165C14.6507 10.187 14.6989 10.2192 14.7396 10.2598C14.7802 10.3004 14.8125 10.3486 14.8345 10.4017C14.8565 10.4547 14.8679 10.5116 14.8679 10.5691C14.868 10.6265 14.8567 10.6834 14.8347 10.7365C14.8128 10.7896 14.7806 10.8379 14.74 10.8785L14.2217 11.3969L14.74 11.9152C14.783 11.9552 14.8175 12.0035 14.8414 12.0572C14.8653 12.1109 14.8781 12.1688 14.8792 12.2276C14.8802 12.2863 14.8694 12.3446 14.8474 12.3991C14.8254 12.4536 14.7926 12.5031 14.7511 12.5446C14.7096 12.5862 14.6601 12.6189 14.6056 12.6409C14.5511 12.6629 14.4928 12.6737 14.434 12.6727C14.3753 12.6717 14.3173 12.6588 14.2637 12.6349C14.21 12.611 14.1617 12.5765 14.1217 12.5335L13.6033 12.016L13.1183 12.5002L13.6367 13.0185C13.7139 13.1015 13.756 13.2112 13.754 13.3245C13.752 13.4378 13.7061 13.546 13.6259 13.6261C13.5458 13.7063 13.4376 13.7522 13.3243 13.7542C13.211 13.7562 13.1013 13.7141 13.0183 13.6369L12.5 13.1185L12.0158 13.6035L12.5333 14.121C12.574 14.1616 12.6062 14.2098 12.6283 14.2629C12.6503 14.316 12.6616 14.3729 12.6617 14.4303C12.6617 14.4878 12.6504 14.5447 12.6285 14.5978C12.6065 14.6509 12.5743 14.6991 12.5337 14.7398C12.4931 14.7804 12.4449 14.8127 12.3919 14.8347C12.3388 14.8567 12.2819 14.8681 12.2245 14.8681C12.167 14.8682 12.1101 14.8569 12.057 14.8349C12.0039 14.813 11.9557 14.7808 11.915 14.7402L11.3967 14.2219L10.8783 14.7402C10.8383 14.7832 10.79 14.8177 10.7363 14.8416C10.6826 14.8655 10.6247 14.8783 10.566 14.8794C10.5072 14.8804 10.4489 14.8696 10.3944 14.8476C10.3399 14.8256 10.2904 14.7928 10.2489 14.7513C10.2073 14.7098 10.1746 14.6603 10.1526 14.6058C10.1306 14.5513 10.1198 14.493 10.1208 14.4342C10.1219 14.3755 10.1347 14.3175 10.1586 14.2639C10.1825 14.2102 10.217 14.1619 10.26 14.1219L10.7783 13.6035L10.26 13.0852C10.217 13.0451 10.1825 12.9968 10.1586 12.9432C10.1347 12.8895 10.1219 12.8316 10.1208 12.7728C10.1198 12.7141 10.1306 12.6557 10.1526 12.6013C10.1746 12.5468 10.2073 12.4973 10.2489 12.4558C10.2904 12.4142 10.3399 12.3815 10.3944 12.3595C10.4489 12.3374 10.5072 12.3266 10.566 12.3277C10.6247 12.3287 10.6826 12.3416 10.7363 12.3655C10.79 12.3894 10.8383 12.4239 10.8783 12.4669L11.3967 12.9844L11.8817 12.5002L11.3633 11.9819C11.286 11.8989 11.244 11.7892 11.246 11.6759C11.248 11.5625 11.2939 11.4544 11.3741 11.3742C11.4542 11.2941 11.5623 11.2482 11.6757 11.2462C11.789 11.2442 11.8987 11.2862 11.9817 11.3635L12.5 11.8819L12.9842 11.3969L12.4667 10.8785C12.3847 10.7965 12.3387 10.6853 12.3387 10.5694C12.3387 10.4534 12.3847 10.3422 12.4667 10.2602Z" fill="black"/>
</svg>
