<svg width="20" height="20" viewBox="0 0 20 20" fill="none" xmlns="http://www.w3.org/2000/svg">
<path d="M5.8 1.66666C6.14834 1.66666 6.43001 1.92499 6.43001 2.24332V3.40832C6.98834 3.39832 7.61501 3.39832 8.32 3.39832H11.68C12.385 3.39832 13.0108 3.39832 13.57 3.40832V2.24332C13.57 1.92499 13.8517 1.66666 14.2 1.66666C14.5483 1.66666 14.83 1.92499 14.83 2.24332V3.45832C16.0383 3.54666 16.8325 3.76499 17.4158 4.29832C17.9992 4.83249 18.2367 5.55916 18.3333 6.66666V7.49999H1.66667V6.66666C1.76334 5.55916 2.00084 4.83332 2.58417 4.29832C3.16751 3.76499 3.96084 3.54666 5.17001 3.45832V2.24332C5.17001 1.92499 5.45251 1.66666 5.8 1.66666Z" fill="black"/>
<path opacity="0.5" d="M18.3333 11.6667V10C18.3333 9.30083 18.3225 8.05417 18.3117 7.5H1.67167C1.66084 8.05417 1.67167 9.30083 1.67167 10V11.6667C1.67167 14.8092 1.67167 16.3808 2.64667 17.3567C3.62417 18.3333 5.195 18.3333 8.33667 18.3333H11.67C14.8117 18.3333 16.3817 18.3333 17.3583 17.3567C18.335 16.38 18.3333 14.8092 18.3333 11.6667Z" fill="black"/>
<path d="M15 13.75C15 14.0815 14.8683 14.3995 14.6339 14.6339C14.3995 14.8683 14.0815 15 13.75 15C13.4185 15 13.1005 14.8683 12.8661 14.6339C12.6317 14.3995 12.5 14.0815 12.5 13.75C12.5 13.4185 12.6317 13.1005 12.8661 12.8661C13.1005 12.6317 13.4185 12.5 13.75 12.5C14.0815 12.5 14.3995 12.6317 14.6339 12.8661C14.8683 13.1005 15 13.4185 15 13.75Z" fill="black"/>
</svg>
