<svg width="20" height="20" viewBox="0 0 20 20" fill="none" xmlns="http://www.w3.org/2000/svg">
<path opacity="0.5" d="M10 18.3334C14.6025 18.3334 18.3333 14.6025 18.3333 10C18.3333 5.39752 14.6025 1.66669 10 1.66669C5.39751 1.66669 1.66667 5.39752 1.66667 10C1.66667 14.6025 5.39751 18.3334 10 18.3334Z" fill="black"/>
<path fill-rule="evenodd" clip-rule="evenodd" d="M10 6.04169C10.1658 6.04169 10.3247 6.10753 10.4419 6.22475C10.5592 6.34196 10.625 6.50093 10.625 6.66669V9.74169L12.525 11.6417C12.5864 11.6989 12.6357 11.7679 12.6698 11.8446C12.704 11.9212 12.7223 12.004 12.7238 12.0879C12.7253 12.1718 12.7099 12.2552 12.6784 12.333C12.647 12.4108 12.6002 12.4815 12.5409 12.5409C12.4815 12.6002 12.4108 12.647 12.333 12.6785C12.2552 12.7099 12.1718 12.7253 12.0879 12.7238C12.004 12.7224 11.9212 12.704 11.8446 12.6698C11.7679 12.6357 11.6989 12.5864 11.6417 12.525L9.55833 10.4417C9.44109 10.3246 9.37515 10.1657 9.375 10V6.66669C9.375 6.50093 9.44085 6.34196 9.55806 6.22475C9.67527 6.10753 9.83424 6.04169 10 6.04169Z" fill="black"/>
</svg>
