<svg width="20" height="20" viewBox="0 0 20 20" fill="none" xmlns="http://www.w3.org/2000/svg">
<path opacity="0.5" d="M5.185 3.83418C5.55382 3.58783 5.94269 3.37291 6.3475 3.19168C7.49083 2.67918 8.0625 2.42335 8.8225 2.91668C9.58333 3.40835 9.58333 4.21668 9.58333 5.83335V7.08335C9.58333 8.65501 9.58333 9.44001 10.0717 9.92835C10.56 10.4167 11.345 10.4167 12.9167 10.4167H14.1667C15.7833 10.4167 16.5917 10.4167 17.0833 11.1767C17.5767 11.9375 17.3208 12.5092 16.8083 13.6517C16.0756 15.2881 14.809 16.6273 13.2159 17.4501C11.6229 18.2729 9.79772 18.5305 8.03917 18.1808C6.50355 17.8754 5.09299 17.1214 3.98586 16.0143C2.87873 14.9072 2.12475 13.4966 1.81925 11.961C1.51375 10.4254 1.67046 8.83368 2.26955 7.38712C2.86865 5.94057 3.88323 4.70414 5.185 3.83418Z" fill="black"/>
<path d="M17.8717 5.8907C17.5352 5.03959 17.0276 4.26656 16.3805 3.6194C15.7333 2.97224 14.9603 2.46471 14.1092 2.1282C12.8242 1.62237 11.6667 2.78653 11.6667 4.16653V7.49987C11.6667 7.72088 11.7545 7.93284 11.9107 8.08912C12.067 8.2454 12.279 8.3332 12.5 8.3332H15.8333C17.2142 8.3332 18.3775 7.17487 17.8717 5.8907Z" fill="black"/>
</svg>
