<svg width="20" height="20" viewBox="0 0 20 20" fill="none" xmlns="http://www.w3.org/2000/svg">
<path opacity="0.5" d="M1.66667 13.3333C1.66667 10.9767 1.66667 9.79751 2.39917 9.06584C3.13084 8.33334 4.31 8.33334 6.66667 8.33334H13.3333C15.69 8.33334 16.8692 8.33334 17.6008 9.06584C18.3333 9.79751 18.3333 10.9767 18.3333 13.3333C18.3333 15.69 18.3333 16.8692 17.6008 17.6008C16.8692 18.3333 15.69 18.3333 13.3333 18.3333H6.66667C4.31 18.3333 3.13084 18.3333 2.39917 17.6008C1.66667 16.8692 1.66667 15.69 1.66667 13.3333Z" fill="black"/>
<path d="M10 15C10.442 15 10.866 14.8244 11.1785 14.5118C11.4911 14.1993 11.6667 13.7754 11.6667 13.3333C11.6667 12.8913 11.4911 12.4674 11.1785 12.1548C10.866 11.8423 10.442 11.6667 10 11.6667C9.55797 11.6667 9.13405 11.8423 8.82149 12.1548C8.50893 12.4674 8.33333 12.8913 8.33333 13.3333C8.33333 13.7754 8.50893 14.1993 8.82149 14.5118C9.13405 14.8244 9.55797 15 10 15ZM5.625 6.66666C5.625 5.50633 6.08594 4.39354 6.90641 3.57306C7.72688 2.75259 8.83968 2.29166 10 2.29166C11.1603 2.29166 12.2731 2.75259 13.0936 3.57306C13.9141 4.39354 14.375 5.50633 14.375 6.66666V8.33666C14.8475 8.34082 15.2617 8.35166 15.625 8.37832V6.66666C15.625 5.17481 15.0324 3.74407 13.9775 2.68918C12.9226 1.63429 11.4918 1.04166 10 1.04166C8.50816 1.04166 7.07742 1.63429 6.02252 2.68918C4.96763 3.74407 4.375 5.17481 4.375 6.66666V8.37916C4.79112 8.35196 5.20799 8.33779 5.625 8.33666V6.66666Z" fill="black"/>
</svg>
