<svg width="20" height="20" viewBox="0 0 20 20" fill="none" xmlns="http://www.w3.org/2000/svg">
<path d="M12.9167 6.25001C12.9167 6.63303 12.8412 7.0123 12.6947 7.36617C12.5481 7.72004 12.3332 8.04157 12.0624 8.31241C11.7916 8.58324 11.47 8.79808 11.1162 8.94466C10.7623 9.09124 10.383 9.16668 10 9.16668C9.61698 9.16668 9.23771 9.09124 8.88384 8.94466C8.52998 8.79808 8.20845 8.58324 7.93761 8.31241C7.66677 8.04157 7.45193 7.72004 7.30535 7.36617C7.15878 7.0123 7.08334 6.63303 7.08334 6.25001C7.08334 5.47646 7.39063 4.7346 7.93761 4.18762C8.48459 3.64063 9.22645 3.33334 10 3.33334C10.7736 3.33334 11.5154 3.64063 12.0624 4.18762C12.6094 4.7346 12.9167 5.47646 12.9167 6.25001Z" fill="black"/>
<path opacity="0.4" d="M16.25 6.24999C16.25 6.80252 16.0305 7.33243 15.6398 7.72313C15.2491 8.11383 14.7192 8.33332 14.1667 8.33332C13.6141 8.33332 13.0842 8.11383 12.6935 7.72313C12.3028 7.33243 12.0833 6.80252 12.0833 6.24999C12.0833 5.69746 12.3028 5.16755 12.6935 4.77685C13.0842 4.38615 13.6141 4.16666 14.1667 4.16666C14.7192 4.16666 15.2491 4.38615 15.6398 4.77685C16.0305 5.16755 16.25 5.69746 16.25 6.24999ZM3.75 6.24999C3.75 6.80252 3.96949 7.33243 4.36019 7.72313C4.7509 8.11383 5.2808 8.33332 5.83333 8.33332C6.38587 8.33332 6.91577 8.11383 7.30647 7.72313C7.69717 7.33243 7.91667 6.80252 7.91667 6.24999C7.91667 5.69746 7.69717 5.16755 7.30647 4.77685C6.91577 4.38615 6.38587 4.16666 5.83333 4.16666C5.2808 4.16666 4.7509 4.38615 4.36019 4.77685C3.96949 5.16755 3.75 5.69746 3.75 6.24999Z" fill="black"/>
<path d="M15 13.75C15 15.3608 12.7617 16.6667 10 16.6667C7.23833 16.6667 5 15.3608 5 13.75C5 12.1392 7.23833 10.8333 10 10.8333C12.7617 10.8333 15 12.1392 15 13.75Z" fill="black"/>
<path opacity="0.4" d="M18.3333 13.75C18.3333 14.9 16.8417 15.8333 15 15.8333C13.1583 15.8333 11.6667 14.9 11.6667 13.75C11.6667 12.6 13.1583 11.6667 15 11.6667C16.8417 11.6667 18.3333 12.6 18.3333 13.75ZM1.66667 13.75C1.66667 14.9 3.15834 15.8333 5.00001 15.8333C6.84167 15.8333 8.33334 14.9 8.33334 13.75C8.33334 12.6 6.84167 11.6667 5.00001 11.6667C3.15834 11.6667 1.66667 12.6 1.66667 13.75Z" fill="black"/>
</svg>
