<svg width="20" height="20" viewBox="0 0 20 20" fill="none" xmlns="http://www.w3.org/2000/svg">
<path d="M4.07667 8.01185C4.07667 7.67685 4.34583 7.40518 4.67833 7.40518H7.89167C8.225 7.40518 8.49416 7.67685 8.49416 8.01185C8.49449 8.0913 8.47917 8.17004 8.44907 8.24356C8.41897 8.31709 8.37468 8.38397 8.31873 8.44038C8.26279 8.49679 8.19628 8.54163 8.123 8.57234C8.04972 8.60305 7.97112 8.61902 7.89167 8.61935H4.67833C4.51802 8.61847 4.36461 8.55399 4.2518 8.44009C4.13899 8.32618 4.076 8.17216 4.07667 8.01185Z" fill="black"/>
<path fill-rule="evenodd" clip-rule="evenodd" d="M17.6567 8.33682C17.6044 8.33404 17.5489 8.33293 17.49 8.33348H15.1792C13.2867 8.33348 11.6667 9.78015 11.6667 11.6668C11.6667 13.5535 13.2867 15.0001 15.1792 15.0001H17.49C17.5489 15.0007 17.6044 14.9996 17.6567 14.9968C18.4258 14.9502 19.1058 14.366 19.1633 13.5493C19.1667 13.496 19.1667 13.4385 19.1667 13.3851V9.94848C19.1667 9.89515 19.1667 9.83765 19.1633 9.78432C19.1058 8.96765 18.4258 8.38432 17.6567 8.33682ZM14.9758 12.556C15.4625 12.556 15.8575 12.1576 15.8575 11.6668C15.8575 11.1751 15.4625 10.7776 14.9758 10.7776C14.4892 10.7776 14.0925 11.176 14.0925 11.6668C14.0925 12.1585 14.4883 12.556 14.9758 12.556Z" fill="black"/>
<path opacity="0.5" d="M17.6167 8.33499C17.6167 7.35082 17.58 6.29499 16.9517 5.53916C16.8901 5.46528 16.8253 5.3941 16.7575 5.32582C16.1333 4.70249 15.3425 4.42582 14.3658 4.29416C13.4158 4.16666 12.2033 4.16666 10.6717 4.16666H8.91167C7.38001 4.16666 6.16667 4.16666 5.21667 4.29416C4.24001 4.42582 3.44917 4.70249 2.82501 5.32582C2.20167 5.94999 1.92501 6.74082 1.79334 7.71749C1.66667 8.66749 1.66667 9.87999 1.66667 11.4117V11.505C1.66667 13.0367 1.66667 14.25 1.79417 15.1992C1.92584 16.1758 2.20251 16.9667 2.82584 17.5908C3.45001 18.2142 4.24084 18.4908 5.21751 18.6225C6.16751 18.75 7.38001 18.75 8.91167 18.75H10.6717C12.2033 18.75 13.4167 18.75 14.3658 18.6225C15.3425 18.4908 16.1333 18.2142 16.7575 17.5908C16.9269 17.4197 17.0731 17.2364 17.1958 17.0408C17.5708 16.4408 17.6158 15.7058 17.6158 14.9992L17.4908 15H15.1792C13.2867 15 11.6667 13.5533 11.6667 11.6667C11.6667 9.77999 13.2867 8.33332 15.1792 8.33332H17.49C17.5339 8.33332 17.5767 8.33388 17.6167 8.33499Z" fill="black"/>
<path d="M8.4175 2.14348L6.66667 3.32681L5.2225 4.29348C6.17084 4.16681 7.3825 4.16681 8.91167 4.16681H10.6717C12.2033 4.16681 13.4167 4.16681 14.3658 4.29431C14.5569 4.31931 14.7408 4.35098 14.9175 4.38931L13.3333 3.33348L11.5725 2.14348C11.1051 1.83281 10.5563 1.66708 9.995 1.66708C9.43373 1.66708 8.88495 1.83281 8.4175 2.14348Z" fill="black"/>
</svg>
